<svg width="128" height="128" viewBox="0 0 128 128" fill="none" xmlns="http://www.w3.org/2000/svg">
<g id="upload-cloud">
<path id="Vector" d="M85.3327 85.3333L63.9993 64L42.666 85.3333" stroke="#FFD700" stroke-width="5" stroke-linecap="round" stroke-linejoin="round"/>
<path id="Vector_2" d="M64 64V112" stroke="#FFD700" stroke-width="5" stroke-linecap="round" stroke-linejoin="round"/>
<path id="Vector_3" d="M108.746 98.0801C113.948 95.2442 118.058 90.7568 120.426 85.3261C122.794 79.8954 123.286 73.8306 121.825 68.0891C120.364 62.3475 117.032 57.2561 112.355 53.6185C107.679 49.9808 101.924 48.004 95.9998 48.0001H89.2798C87.6655 41.756 84.6566 35.9592 80.4795 31.0454C76.3024 26.1316 71.0656 22.2286 65.163 19.63C59.2603 17.0314 52.8454 15.8047 46.4004 16.0421C39.9554 16.2796 33.6481 17.975 27.9527 21.001C22.2573 24.0269 17.322 28.3046 13.5178 33.5125C9.71356 38.7204 7.13947 44.7229 5.98901 51.0688C4.83856 57.4148 5.14168 63.9389 6.87559 70.1508C8.6095 76.3627 11.7291 82.1007 15.9998 86.9334" stroke="#FFD700" stroke-width="5" stroke-linecap="round" stroke-linejoin="round"/>
<path id="Vector_4" d="M85.3327 85.3333L63.9993 64L42.666 85.3333" stroke="#FFD700" stroke-width="5" stroke-linecap="round" stroke-linejoin="round"/>
</g>
</svg>
